<?xml version="1.0" encoding="UTF-8"?>
<svg width="40px" height="40px" viewBox="0 0 40 40" version="1.1" xmlns="http://www.w3.org/2000/svg" xmlns:xlink="http://www.w3.org/1999/xlink">
    <title>形状结合 2</title>
    <g id="页面-1" stroke="none" stroke-width="1" fill="none" fill-rule="evenodd">
        <g id="Developer表格样式" transform="translate(-1124.000000, -208.000000)" fill="#BEAC92" fill-rule="nonzero">
            <g id="形状结合-2" transform="translate(1124.000000, 208.000000)">
                <path d="M20,0 C31.045695,0 40,8.954305 40,20 C40,31.045695 31.045695,40 20,40 C8.954305,40 0,31.045695 0,20 C0,8.954305 8.954305,0 20,0 Z M20,1 C9.50658975,1 1,9.50658975 1,20 C1,30.4934102 9.50658975,39 20,39 C30.4934102,39 39,30.4934102 39,20 C39,9.50658975 30.4934102,1 20,1 Z M20.75,7 L20.75,19 L32,19 L32,20.5 L20.75,20.5 L20.75,32 L19.25,32 L19.25,20.5 L8,20.5 L8,19 L19.25,19 L19.25,7 L20.75,7 Z" id="形状结合"></path>
            </g>
        </g>
    </g>
</svg>