<?xml version="1.0" encoding="UTF-8"?>
<svg width="20px" height="20px" viewBox="0 0 20 20" version="1.1" xmlns="http://www.w3.org/2000/svg" xmlns:xlink="http://www.w3.org/1999/xlink">
    <title>编组 2</title>
    <g id="页面-1" stroke="none" stroke-width="1" fill="none" fill-rule="evenodd">
        <g id="Europa-menus" transform="translate(-200.000000, -24.000000)">
            <g id="编组-2" transform="translate(200.000000, 24.000000)">
                <rect id="矩形" x="0" y="0" width="20" height="20"></rect>
                <path d="M16.7114755,3.27644661 C16.8850418,3.45001296 16.904327,3.71943736 16.7693309,3.9143055 L16.7114755,3.98355339 L10.7010678,9.99396103 L16.7114755,16.0043687 C16.9067376,16.1996308 16.9067376,16.5162133 16.7114755,16.7114755 C16.5162133,16.9067376 16.1996308,16.9067376 16.0043687,16.7114755 L9.99396103,10.7010678 L3.98355339,16.7114755 C3.80998704,16.8850418 3.54056264,16.904327 3.3456945,16.7693309 L3.27644661,16.7114755 C3.10288026,16.5379091 3.08359511,16.2684847 3.21859116,16.0736166 L3.27644661,16.0043687 L9.28685425,9.99396103 L3.27644661,3.98355339 C3.08118446,3.78829124 3.08118446,3.47170876 3.27644661,3.27644661 C3.47170876,3.08118446 3.78829124,3.08118446 3.98355339,3.27644661 L9.99396103,9.28685425 L16.0043687,3.27644661 C16.177935,3.10288026 16.4473594,3.08359511 16.6422276,3.21859116 L16.7114755,3.27644661 Z" id="路径" fill="#FFFFFF"></path>
            </g>
        </g>
    </g>
</svg>