<?xml version="1.0" encoding="UTF-8"?>
<svg width="40px" height="40px" viewBox="0 0 40 40" version="1.1" xmlns="http://www.w3.org/2000/svg" xmlns:xlink="http://www.w3.org/1999/xlink">
    <title>close</title>
    <g id="页面-1" stroke="none" stroke-width="1" fill="none" fill-rule="evenodd">
        <g id="Developer表格样式" transform="translate(-1124.000000, -293.000000)" fill="#EE737E" fill-rule="nonzero">
            <path d="M1144,293 C1155.04569,293 1164,301.954305 1164,313 C1164,324.045695 1155.04569,333 1144,333 C1132.95431,333 1124,324.045695 1124,313 C1124,301.954305 1132.95431,293 1144,293 Z M1144,294 C1133.50659,294 1125,302.50659 1125,313 C1125,323.49341 1133.50659,332 1144,332 C1154.49341,332 1163,323.49341 1163,313 C1163,302.50659 1154.49341,294 1144,294 Z M1152.3085,303.130835 L1153.36916,304.191495 L1144.936,312.625 L1153.01561,320.704951 L1151.95495,321.765611 L1143.875,313.686 L1135.6915,321.869165 L1134.63084,320.808505 L1142.814,312.625 L1134.98439,304.795049 L1136.04505,303.734389 L1143.875,311.564 L1152.3085,303.130835 Z" id="close"></path>
        </g>
    </g>
</svg>