<?xml version="1.0" encoding="UTF-8"?>
<svg width="24px" height="24px" viewBox="0 0 24 24" version="1.1" xmlns="http://www.w3.org/2000/svg" xmlns:xlink="http://www.w3.org/1999/xlink">
    <title>编组 9</title>
    <g id="页面-1" stroke="none" stroke-width="1" fill="none" fill-rule="evenodd">
        <g id="Europa-menus" transform="translate(-30.000000, -420.000000)">
            <g id="编组-9" transform="translate(30.000000, 420.000000)">
                <rect id="矩形备份-8" x="0" y="0" width="24" height="24"></rect>
                <rect id="矩形备份-8" stroke="#FFFFFF" x="1.5" y="1.5" width="21" height="21" rx="10.5"></rect>
                <path d="M6,9 L6,14 L11,14 L11,15 L5,15 L5,9 L6,9 Z" id="形状结合" fill="#FFFFFF" transform="translate(8.000000, 12.000000) rotate(45.000000) translate(-8.000000, -12.000000) "></path>
                <path d="M14,9 L14,14 L19,14 L19,15 L13,15 L13,9 L14,9 Z" id="形状结合备份" fill="#FFFFFF" transform="translate(16.000000, 12.000000) scale(-1, 1) rotate(45.000000) translate(-16.000000, -12.000000) "></path>
                <rect id="矩形" fill="#FFFFFF" transform="translate(12.000000, 11.996651) rotate(-74.000000) translate(-12.000000, -11.996651) " x="6" y="11.4966505" width="12" height="1"></rect>
            </g>
        </g>
    </g>
</svg>