<?xml version="1.0" encoding="UTF-8"?>
<svg width="50px" height="50px" viewBox="0 0 50 50" version="1.1" xmlns="http://www.w3.org/2000/svg" xmlns:xlink="http://www.w3.org/1999/xlink">
    <title>形状结合 2</title>
    <g id="页面-1" stroke="none" stroke-width="1" fill="none" fill-rule="evenodd">
        <g id="Explorer" transform="translate(-18.000000, -160.000000)" fill="#BEAC92" fill-rule="nonzero">
            <g id="形状结合-2" transform="translate(18.000000, 160.000000)">
                <path d="M25,0 C38.8071187,0 50,11.1928813 50,25 C50,38.8071187 38.8071187,50 25,50 C11.1928813,50 0,38.8071187 0,25 C0,11.1928813 11.1928813,0 25,0 Z M25,1 C11.745166,1 1,11.745166 1,25 C1,38.254834 11.745166,49 25,49 C38.254834,49 49,38.254834 49,25 C49,11.745166 38.254834,1 25,1 Z M28.0336514,16.5147186 L35.919,24.4007186 L36,24.4013973 L36,24.4817186 L36.5189328,25 L28.0336514,33.4852814 L27.3265446,32.7781746 L34.703,25.4007186 L12,25.4013973 L12,24.4013973 L34.505,24.4007186 L27.3265446,17.2218254 L28.0336514,16.5147186 Z" id="形状结合"></path>
            </g>
        </g>
    </g>
</svg>