<?xml version="1.0" encoding="UTF-8"?>
<svg width="36px" height="36px" viewBox="0 0 36 36" version="1.1" xmlns="http://www.w3.org/2000/svg" xmlns:xlink="http://www.w3.org/1999/xlink">
    <title>Europa</title>
    <g id="页面-1" stroke="none" stroke-width="1" fill="none" fill-rule="evenodd">
        <g id="Europa-menus" transform="translate(-24.000000, -16.000000)">
            <g id="Europa" transform="translate(24.000000, 16.000000)">
                <rect id="矩形" x="0" y="0" width="36" height="36"></rect>
                <g id="资源-10" transform="translate(0.791484, 2.618820)" fill-rule="nonzero">
                    <path d="M1.89055602,8.21373838 L12.4623643,2.11010201 C13.8398471,1.31481197 15.6012275,1.78677243 16.3965175,3.16425519 L25.7466993,19.3592451 C26.5419893,20.7367279 26.0700289,22.4981083 24.6925462,23.2933983 L14.1207379,29.3970347 C12.7432551,30.1923247 10.9818747,29.7203643 10.1865847,28.3428815 L0.836402867,12.1478916 C0.0411128265,10.7704088 0.513073263,9.00902842 1.89055602,8.21373838 Z" id="矩形" fill="#FFA525"></path>
                    <path d="M12.2373643,1.72039058 L1.66555602,7.82402695 C0.0728415863,8.74358107 -0.472862675,10.7801771 0.446691437,12.3728916 L9.79687325,28.5678815 C10.7164274,30.1605959 12.7530234,30.7063002 14.3457379,29.7867461 L24.9175462,23.6831097 C26.5102606,22.7635556 27.0559649,20.7269596 26.1364107,19.1342451 L16.7862289,2.93925519 C15.8666749,1.34654075 13.8300788,0.800836473 12.2373643,1.72039058 Z M2.11555602,8.60344981 L12.6873643,2.49981344 C13.8496154,1.82878748 15.3357801,2.22700411 16.0068061,3.38925519 L25.3569879,19.5842451 C26.0280139,20.7464962 25.6297972,22.2326609 24.4675462,22.9036869 L13.8957379,29.0073233 C12.7334868,29.6783492 11.2473221,29.2801326 10.5762961,28.1178815 L1.2261143,11.9228916 C0.555088323,10.7606405 0.953304947,9.27447581 2.11555602,8.60344981 Z" id="形状" fill="#000072"></path>
                    <path d="M15.6090957,8.83866899 C15.8243672,8.7144739 16.0995592,8.78830594 16.2237543,9.00357739 C16.3390783,9.20347238 16.2836545,9.4550335 16.10279,9.58938847 L16.0588459,9.61823603 L5.84793686,15.5091451 C5.63266537,15.6333402 5.35747331,15.5595082 5.23327822,15.3442367 C5.1179542,15.1443417 5.17337804,14.8927806 5.35424254,14.7584257 L5.39818661,14.7295781 L15.6090957,8.83866899 Z" id="路径" fill="#000072"></path>
                    <path d="M17.7363684,12.5368508 C17.9516399,12.4126557 18.226832,12.4864877 18.3510271,12.7017592 C18.4663511,12.9016542 18.4109272,13.1532153 18.2300627,13.2875703 L18.1861187,13.3164178 L7.97520958,19.2073269 C7.75993808,19.331522 7.48474603,19.25769 7.36055093,19.0424185 C7.24522691,18.8425235 7.30065076,18.5909624 7.48151525,18.4566075 L7.52545933,18.4277599 L17.7363684,12.5368508 Z" id="路径" fill="#000072"></path>
                    <path d="M19.8627058,16.2028465 C20.0776784,16.0781348 20.353047,16.1513058 20.4777587,16.3662784 C20.5935623,16.5658958 20.5387427,16.8175894 20.3582014,16.9523783 L20.3143268,16.9813313 L10.1034177,22.9049677 C9.88844501,23.0296793 9.61307647,22.9565084 9.48836477,22.7415358 C9.3725611,22.5419183 9.42738068,22.2902248 9.60792199,22.1554359 L9.65179667,22.1264829 L19.8627058,16.2028465 Z" id="路径" fill="#000072"></path>
                    <path d="M6.98933792,8.1509483 L19.6585023,0.836402862 C21.0359851,0.0411128224 22.7973654,0.513073277 23.5926555,1.89055603 L33.6808373,19.3637995 C34.4761273,20.7412823 34.0041669,22.5026626 32.6266841,23.2979527 L19.9575197,30.6124981 C18.580037,31.4077881 16.8186566,30.9358277 16.0233666,29.5583449 L5.9351848,12.0851015 C5.13989476,10.7076187 5.61185516,8.94623834 6.98933792,8.1509483 Z" id="矩形" fill="#FFFFFF"></path>
                    <path d="M19.4335023,0.446691432 L6.76433792,7.76123687 C5.17162349,8.68079099 4.62591925,10.717387 5.54547337,12.3101015 L15.6336552,29.7833449 C16.5532093,31.3760594 18.5898053,31.9217636 20.1825197,31.0022095 L32.8516841,23.6876641 C34.4443985,22.76811 34.9901028,20.7315139 34.0705487,19.1387995 L23.9823669,1.66555603 C23.0628128,0.0728415952 21.0262167,-0.472862677 19.4335023,0.446691432 Z M7.21433792,8.54065973 L19.8835023,1.22611429 C21.0457534,0.555088323 22.5319181,0.953304956 23.202944,2.11555603 L33.2911258,19.5887995 C33.9621518,20.7510505 33.5639352,22.2372152 32.4016841,22.9082412 L19.7325197,30.2227867 C18.5702687,30.8938126 17.084104,30.495596 16.413078,29.3333449 L6.32489623,11.8601015 C5.65387022,10.6978504 6.05208688,9.21168574 7.21433792,8.54065973 Z" id="形状" fill="#000072"></path>
                    <circle id="椭圆形" fill="#FF1E97" cx="30.5939708" cy="20.8139071" r="1.30909091"></circle>
                    <path d="M26.3394254,14.3993616 L27.615789,13.7448162 C27.8225719,13.6205551 27.9490621,13.396972 27.9490621,13.1557253 C27.9490621,12.9144785 27.8225719,12.6908954 27.615789,12.5666343 L22.4448799,9.88299799 C22.2494591,9.78387014 22.0184825,9.78387014 21.8230617,9.88299799 L19.7939708,10.9302707 L17.8630617,9.8502707 C17.6676409,9.7511429 17.4366643,9.7511429 17.2412435,9.8502707 L12.1030617,12.6320889 C11.8801145,12.7475916 11.7428905,12.9804519 11.7498625,13.2314454 C11.7568346,13.482439 11.9067736,13.7073225 12.135789,13.8102707 L13.2485163,14.3993616 L12.0048799,15.0539071 C11.7758645,15.1568552 11.6259255,15.3817388 11.6189534,15.6327324 C11.6119814,15.8837259 11.7492054,16.1165862 11.9721526,16.2320889 L13.8048799,17.1811798 L13.8048799,20.5520889 L19.7612435,23.7266343 L25.7503345,20.5520889 L25.7503345,17.2139071 L27.6485163,16.1993616 C27.8683872,16.0736863 28.0013263,15.8372757 27.9944841,15.5841143 C27.9876419,15.330953 27.8421272,15.1020682 27.615789,14.9884525 L26.3394254,14.3993616 Z M20.2521526,22.4502707 L20.2521526,18.0975434 L21.9212435,18.9811798 C22.1166643,19.0803076 22.3476409,19.0803076 22.5430617,18.9811798 L24.8339708,17.7048162 L24.8339708,19.9957253 L20.2521526,22.4502707 Z M19.7612435,16.8211798 L15.2448799,14.3993616 L19.7612435,12.0102707 L24.3103345,14.3993616 L20.2521526,16.5920889 L20.2521526,16.5920889 L19.7612435,16.8211798 Z M20.775789,17.3448162 L25.3248799,14.922998 L26.7648799,15.6102707 L22.215789,18.0975434 L20.775789,17.3448162 Z M26.7321526,13.1557253 L25.3248799,13.8757253 L20.775789,11.4866343 L22.1176072,10.7666343 L26.7321526,13.1557253 Z M19.3030617,18.1302707 L19.3030617,22.4502707 L14.7212435,19.9957253 L14.7212435,17.7048162 L17.1430617,19.0139071 C17.3412608,19.1150384 17.5783918,19.1025578 17.7648799,18.9811798 L19.3030617,18.1302707 Z M18.8121526,17.3775434 L17.4376072,18.1302707 L12.855789,15.642998 L14.2630617,14.922998 L18.8121526,17.3775434 L18.8121526,17.3775434 Z M17.535789,10.7339071 L18.8121526,11.4539071 L14.2303345,13.8757253 L12.9866981,13.2211798 L17.535789,10.7339071 Z" id="形状" fill="#000072"></path>
                </g>
            </g>
        </g>
    </g>
</svg>