<?xml version="1.0" encoding="UTF-8"?>
<svg width="20px" height="16px" viewBox="0 0 20 16" version="1.1" xmlns="http://www.w3.org/2000/svg" xmlns:xlink="http://www.w3.org/1999/xlink">
    <title>形状结合 2</title>
    <g id="页面-1" stroke="none" stroke-width="1" fill="none" fill-rule="evenodd">
        <g id="Setting2" transform="translate(-884.000000, -167.000000)" fill="#DEDEDE">
            <g id="形状结合-2" transform="translate(884.000000, 167.000000)">
                <path d="M10.5363138,3.01144476 L19,3.01144476 C19.5522847,3.01144476 20,3.45916001 20,4.01144476 L20,15 C20,15.5522847 19.5522847,16 19,16 L1,16 C0.44771525,16 6.76353751e-17,15.5522847 0,15 L0,3 L10.3957228,3.00152615 C10.4419421,3.00808526 10.4889051,3.01144476 10.5363138,3.01144476 Z M0,1 C-6.76353751e-17,0.44771525 0.44771525,1.01453063e-16 1,0 L7.46368617,0 C7.7986616,2.3598396e-16 8.11138809,0.167719539 8.29670929,0.446761815 L9.328,2 L0,2 L0,1 Z" id="形状结合"></path>
            </g>
        </g>
    </g>
</svg>