<?xml version="1.0" encoding="UTF-8"?>
<svg width="16px" height="16px" viewBox="0 0 16 16" version="1.1" xmlns="http://www.w3.org/2000/svg" xmlns:xlink="http://www.w3.org/1999/xlink">
    <title>info</title>
    <g id="页面-1" stroke="none" stroke-width="1" fill="none" fill-rule="evenodd">
        <g id="Setting2" transform="translate(-416.000000, -126.000000)">
            <g id="编组" transform="translate(416.000000, 126.000000)">
                <polygon id="路径" points="0 0 16 0 16 16 0 16"></polygon>
                <path d="M8,0 C12.416,0 16,3.584 16,8 C16,12.416 12.416,16 8,16 C3.584,16 0,12.416 0,8 C0,3.584 3.584,0 8,0 Z M9.24008275,7.04337858 C8.63634,6.04896865 7.293484,5.70514586 6.24072992,6.27542889 C5.53889387,6.65561758 5.12531723,7.25579706 5,8.07596735 L5,8.07596735 L7.33390287,8.07596735 L6.12566646,11.2151704 L6.07320533,11.3697501 C5.76830766,12.4041164 6.35378056,13.5020359 7.44002035,13.8750586 C8.16688376,14.1246688 8.97914919,13.9949588 9.57875199,13.5335264 C9.97848719,13.2259047 10.4522365,12.6895155 11,11.9243586 L11,11.9243586 L8.19081815,11.9243586 L9.39905456,8.78515557 L9.45701496,8.61112489 C9.6058583,8.08439681 9.52977963,7.52053124 9.24008275,7.04337858 Z M8.5,2 C7.67157288,2 7,2.67157288 7,3.5 C7,4.32842712 7.67157288,5 8.5,5 C9.32842712,5 10,4.32842712 10,3.5 C10,2.67157288 9.32842712,2 8.5,2 Z" id="形状结合" fill="#BEAC92" fill-rule="nonzero"></path>
            </g>
        </g>
    </g>
</svg>