<?xml version="1.0" encoding="UTF-8"?>
<svg width="16px" height="16px" viewBox="0 0 16 16" version="1.1" xmlns="http://www.w3.org/2000/svg" xmlns:xlink="http://www.w3.org/1999/xlink">
    <title>编组 2</title>
    <g id="页面-1" stroke="none" stroke-width="1" fill="none" fill-rule="evenodd">
        <g id="消息类型" transform="translate(-1156.000000, -340.000000)">
            <g id="分组-copy-8" transform="translate(790.000000, 332.000000)">
                <g id="编组-2" transform="translate(366.000000, 8.000000)">
                    <rect id="矩形" x="0" y="0" width="16" height="16"></rect>
                    <path d="M12.9497475,3.05025253 C13.1450096,3.24551468 13.1450096,3.56209717 12.9497475,3.75735931 L8.70710678,8 L12.9497475,12.2426407 C13.1450096,12.4379028 13.1450096,12.7544853 12.9497475,12.9497475 C12.7544853,13.1450096 12.4379028,13.1450096 12.2426407,12.9497475 L8,8.70710678 L3.75735931,12.9497475 C3.56209717,13.1450096 3.24551468,13.1450096 3.05025253,12.9497475 C2.85499039,12.7544853 2.85499039,12.4379028 3.05025253,12.2426407 L7.29289322,8 L3.05025253,3.75735931 C2.85499039,3.56209717 2.85499039,3.24551468 3.05025253,3.05025253 C3.24551468,2.85499039 3.56209717,2.85499039 3.75735931,3.05025253 L8,7.29289322 L12.2426407,3.05025253 C12.4379028,2.85499039 12.7544853,2.85499039 12.9497475,3.05025253 Z" id="路径" fill="#8C8B8C"></path>
                </g>
            </g>
        </g>
    </g>
</svg>