<?xml version="1.0" encoding="UTF-8"?>
<svg width="24px" height="24px" viewBox="0 0 24 24" version="1.1" xmlns="http://www.w3.org/2000/svg" xmlns:xlink="http://www.w3.org/1999/xlink">
    <title>编组 3</title>
    <g id="页面-1" stroke="none" stroke-width="1" fill="none" fill-rule="evenodd">
        <g id="Extrinsics-Details-State" transform="translate(-1140.000000, -22.000000)">
            <g id="search" transform="translate(880.000000, 16.000000)">
                <g id="编组-3" transform="translate(260.000000, 6.000000)">
                    <rect id="矩形" x="0" y="0" width="24" height="24"></rect>
                    <path d="M14.1154559,13.3661445 L19.3316524,19.9183271 L18.5493136,20.5411802 L13.3329856,13.9898667 C13.6111192,13.803718 13.8728212,13.594932 14.1154559,13.3661445 Z" id="形状结合" fill="#FFFFFF" fill-rule="nonzero"></path>
                    <path d="M10,4 C12.7614237,4 15,6.23857625 15,9 C15,11.7614237 12.7614237,14 10,14 C7.23857625,14 5,11.7614237 5,9 C5,6.23857625 7.23857625,4 10,4 Z M10,5 C7.790861,5 6,6.790861 6,9 C6,11.209139 7.790861,13 10,13 C12.209139,13 14,11.209139 14,9 C14,6.790861 12.209139,5 10,5 Z" id="形状结合" fill="#FFFFFF"></path>
                </g>
            </g>
        </g>
    </g>
</svg>